<svg xmlns="http://www.w3.org/2000/svg" width="38" height="48" viewBox="0 0 38 48">
  <g fill="none" fill-rule="evenodd">
    <path fill="#444444" d="M7.25662487,39.785 C6.99662357,39.4469983 6.66729353,39.1870009 6.26862487,39.005 C5.86995621,38.8229991 5.45829366,38.732 5.03362487,38.732 C4.51362227,38.732 4.0434603,38.829499 3.62312487,39.0245 C3.20278943,39.219501 2.84312636,39.4859983 2.54412487,39.824 C2.24512337,40.1620017 2.01329236,40.5584977 1.84862487,41.0135 C1.68395738,41.4685023 1.60162487,41.9559974 1.60162487,42.476 C1.60162487,42.9613358 1.67962409,43.4206645 1.83562487,43.854 C1.99162565,44.2873355 2.21695673,44.668665 2.51162487,44.998 C2.80629301,45.327335 3.16595608,45.5873324 3.59062487,45.778 C4.01529366,45.9686676 4.49628885,46.064 5.03362487,46.064 C5.56229418,46.064 6.02595621,45.9556678 6.42462487,45.739 C6.82329353,45.5223322 7.16129015,45.2190019 7.43862487,44.829 L8.49162487,45.622 C8.42229119,45.7173338 8.30095907,45.8538324 8.12762487,46.0315 C7.95429067,46.2091676 7.7246263,46.3868324 7.43862487,46.5645 C7.15262344,46.7421676 6.80812688,46.898166 6.40512487,47.0325 C6.00212285,47.166834 5.53629418,47.234 5.00762487,47.234 C4.27962123,47.234 3.62312779,47.0953347 3.03812487,46.818 C2.45312194,46.5406653 1.95479359,46.1766689 1.54312487,45.726 C1.13145614,45.2753311 0.817292615,44.7661695 0.600624865,44.1985 C0.383957115,43.6308305 0.275624865,43.0566696 0.275624865,42.476 C0.275624865,41.7653298 0.392623695,41.1088363 0.626624865,40.5065 C0.860626035,39.9041637 1.18778943,39.3841689 1.60812487,38.9465 C2.0284603,38.5088311 2.53328859,38.1686679 3.12262487,37.926 C3.71196115,37.6833321 4.36195465,37.562 5.07262487,37.562 C5.67929457,37.562 6.27512194,37.6789988 6.86012487,37.913 C7.44512779,38.1470012 7.92395634,38.5066642 8.29662487,38.992 L7.25662487,39.785 Z M9.48417492,37.172 L10.6541749,37.172 L10.6541749,41.787 L10.6801749,41.787 C10.827509,41.457665 11.0831731,41.1911677 11.4471749,40.9875 C11.8111767,40.7838323 12.2315059,40.682 12.7081749,40.682 C13.0028431,40.682 13.2866736,40.7274995 13.5596749,40.8185 C13.8326763,40.9095005 14.0710072,41.0503324 14.2746749,41.241 C14.4783426,41.4316676 14.640841,41.6764985 14.7621749,41.9755 C14.8835089,42.2745015 14.9441749,42.6276646 14.9441749,43.035 L14.9441749,47 L13.7741749,47 L13.7741749,43.36 C13.7741749,43.0739986 13.7351753,42.8291677 13.6571749,42.6255 C13.5791745,42.4218323 13.4751756,42.2571673 13.3451749,42.1315 C13.2151743,42.0058327 13.0656758,41.9148336 12.8966749,41.8585 C12.7276741,41.8021664 12.5521758,41.774 12.3701749,41.774 C12.127507,41.774 11.902176,41.8129996 11.6941749,41.891 C11.4861739,41.9690004 11.3041757,42.0924992 11.1481749,42.2615 C10.9921741,42.4305008 10.870842,42.6449987 10.7841749,42.905 C10.6975078,43.1650013 10.6541749,43.4726649 10.6541749,43.828 L10.6541749,47 L9.48417492,47 L9.48417492,37.172 Z M16.521725,41.592 C16.85106,41.2886651 17.2323895,41.0611674 17.665725,40.9095 C18.0990605,40.7578326 18.5323895,40.682 18.965725,40.682 C19.4163939,40.682 19.8042233,40.7383328 20.129225,40.851 C20.4542266,40.9636672 20.7207239,41.1153324 20.928725,41.306 C21.136726,41.4966676 21.2905578,41.7154988 21.390225,41.9625 C21.4898921,42.2095012 21.539725,42.467332 21.539725,42.736 L21.539725,45.882 C21.539725,46.0986678 21.5440583,46.2979991 21.552725,46.48 C21.5613917,46.6620009 21.5743916,46.8353325 21.591725,47 L20.551725,47 C20.5257248,46.6879984 20.512725,46.3760016 20.512725,46.064 L20.486725,46.064 C20.2267237,46.4626687 19.9190601,46.7443325 19.563725,46.909 C19.2083899,47.0736675 18.7967273,47.156 18.328725,47.156 C18.0427235,47.156 17.7697263,47.1170004 17.509725,47.039 C17.2497237,46.9609996 17.0222259,46.8440008 16.827225,46.688 C16.632224,46.5319992 16.4783922,46.3391678 16.365725,46.1095 C16.2530577,45.8798322 16.196725,45.6133349 16.196725,45.31 C16.196725,44.9113313 16.2855574,44.577668 16.463225,44.309 C16.6408925,44.040332 16.8835568,43.8215008 17.191225,43.6525 C17.4988932,43.4834992 17.8585562,43.362167 18.270225,43.2885 C18.6818937,43.214833 19.1217226,43.178 19.589725,43.178 L20.447725,43.178 L20.447725,42.918 C20.447725,42.7619992 20.4173919,42.6060008 20.356725,42.45 C20.296058,42.2939992 20.2050589,42.1531673 20.083725,42.0275 C19.962391,41.9018327 19.8107259,41.802167 19.628725,41.7285 C19.4467241,41.654833 19.2300596,41.618 18.978725,41.618 C18.7533905,41.618 18.5562258,41.6396664 18.387225,41.683 C18.2182241,41.7263335 18.0643923,41.7804997 17.925725,41.8455 C17.7870576,41.9105003 17.6613922,41.9863329 17.548725,42.073 C17.4360577,42.1596671 17.3277255,42.2419996 17.223725,42.32 L16.521725,41.592 Z M19.823725,44.036 C19.5463903,44.036 19.2625598,44.0511665 18.972225,44.0815 C18.6818902,44.1118335 18.4175595,44.1703329 18.179225,44.257 C17.9408904,44.3436671 17.7458924,44.4649992 17.594225,44.621 C17.4425575,44.7770008 17.366725,44.9763321 17.366725,45.219 C17.366725,45.5743351 17.4858904,45.8299992 17.724225,45.986 C17.9625595,46.1420008 18.2853896,46.22 18.692725,46.22 C19.0133932,46.22 19.2863905,46.1658339 19.511725,46.0575 C19.7370594,45.9491661 19.9190576,45.8083342 20.057725,45.635 C20.1963923,45.4616658 20.296058,45.2688344 20.356725,45.0565 C20.4173919,44.8441656 20.447725,44.634001 20.447725,44.426 L20.447725,44.036 L19.823725,44.036 Z M26.328275,41.852 L24.651275,41.852 L24.651275,44.647 C24.651275,44.8203342 24.6556083,44.9914992 24.664275,45.1605 C24.6729417,45.3295008 24.7054414,45.481166 24.761775,45.6155 C24.8181086,45.749834 24.9047744,45.8581663 25.021775,45.9405 C25.1387756,46.0228337 25.3099406,46.064 25.535275,46.064 C25.6739424,46.064 25.816941,46.0510001 25.964275,46.025 C26.1116091,45.9989999 26.2459411,45.9513337 26.367275,45.882 L26.367275,46.948 C26.2286077,47.0260004 26.0487761,47.0801665 25.827775,47.1105 C25.6067739,47.1408335 25.435609,47.156 25.314275,47.156 C24.8636061,47.156 24.5147763,47.0931673 24.267775,46.9675 C24.0207738,46.8418327 23.8387756,46.6793343 23.721775,46.48 C23.6047744,46.2806657 23.5354418,46.0575012 23.513775,45.8105 C23.4921083,45.5634988 23.481275,45.3143346 23.481275,45.063 L23.481275,41.852 L22.129275,41.852 L22.129275,40.838 L23.481275,40.838 L23.481275,39.109 L24.651275,39.109 L24.651275,40.838 L26.328275,40.838 L26.328275,41.852 Z M37.4218251,47 L32.1178251,47 C31.4678218,47 30.8524947,46.8830012 30.2718251,46.649 C29.6911555,46.4149988 29.1841606,46.0900021 28.7508251,45.674 C28.3174896,45.2579979 27.9751597,44.7618362 27.7238251,44.1855 C27.4724905,43.6091638 27.3468251,42.9786701 27.3468251,42.294 C27.3468251,41.6179966 27.4681572,40.9918362 27.7108251,40.4155 C27.953493,39.8391638 28.2893229,39.3386688 28.7183251,38.914 C29.1473272,38.4893312 29.6499889,38.1578345 30.2263251,37.9195 C30.8026613,37.6811655 31.4288217,37.562 32.1048251,37.562 C32.7548283,37.562 33.3636556,37.6789988 33.9313251,37.913 C34.4989946,38.1470012 34.9951563,38.4698313 35.4198251,38.8815 C35.8444939,39.2931687 36.1803238,39.7784972 36.4273251,40.3375 C36.6743263,40.8965028 36.7978251,41.50533 36.7978251,42.164 C36.7978251,42.5540019 36.7523255,42.9374981 36.6613251,43.3145 C36.5703246,43.6915019 36.4359926,44.044665 36.2583251,44.374 C36.0806575,44.703335 35.8596597,44.9979987 35.5953251,45.258 C35.3309904,45.5180013 35.0298268,45.7259992 34.6918251,45.882 L34.6918251,45.908 L37.4218251,45.908 L37.4218251,47 Z M32.0658251,45.83 C32.5684943,45.83 33.0299896,45.7368343 33.4503251,45.5505 C33.8706605,45.3641657 34.2303236,45.1085016 34.5293251,44.7835 C34.8283266,44.4584984 35.0601576,44.0750022 35.2248251,43.633 C35.3894926,43.1909978 35.4718251,42.7186692 35.4718251,42.216 C35.4718251,41.7306642 35.3873259,41.2756688 35.2183251,40.851 C35.0493242,40.4263312 34.8131599,40.0580016 34.5098251,39.746 C34.2064902,39.4339984 33.8468272,39.1870009 33.4308251,39.005 C33.014823,38.8229991 32.5598276,38.732 32.0658251,38.732 C31.5804893,38.732 31.1319938,38.8229991 30.7203251,39.005 C30.3086564,39.1870009 29.9511599,39.4339984 29.6478251,39.746 C29.3444902,40.0580016 29.1061593,40.4241646 28.9328251,40.8445 C28.7594909,41.2648354 28.6728251,41.7133309 28.6728251,42.19 C28.6728251,42.6926692 28.7551576,43.1649978 28.9198251,43.607 C29.0844926,44.0490022 29.3163236,44.434665 29.6153251,44.764 C29.9143266,45.093335 30.271823,45.3533324 30.6878251,45.544 C31.1038272,45.7346676 31.5631559,45.83 32.0658251,45.83 Z"/>
    <path fill="#F45405" d="M37.05895,34 L18.29095,34 C15.9909385,34 13.8136269,33.5860041 11.75895,32.758 C9.70427307,31.9299959 7.91029101,30.7800074 6.37695001,29.308 C4.84360901,27.8359926 3.63228779,26.0803435 2.74295001,24.041 C1.85361223,22.0016565 1.40895001,19.7706788 1.40895001,17.348 C1.40895001,14.955988 1.83827905,12.7403435 2.69695001,10.701 C3.55562097,8.66165647 4.74394242,6.89067418 6.26195001,5.388 C7.7799576,3.88532582 9.55860648,2.71233755 11.59795,1.869 C13.6372935,1.02566245 15.852938,0.604 18.24495,0.604 C20.5449615,0.604 22.6992733,1.01799586 24.70795,1.846 C26.7166267,2.67400414 28.4722758,3.81632605 29.97495,5.273 C31.4776242,6.72967395 32.6659456,8.44699011 33.53995,10.425 C34.4139544,12.4030099 34.85095,14.5573217 34.85095,16.888 C34.85095,18.2680069 34.6899516,19.6249933 34.36795,20.959 C34.0459484,22.2930067 33.5706198,23.5426608 32.94195,24.708 C32.3132802,25.8733392 31.531288,26.9159954 30.59595,27.836 C29.660612,28.7560046 28.594956,29.4919972 27.39895,30.044 L27.39895,30.136 L37.05895,30.136 L37.05895,34 Z M18.10695,29.86 C19.8856256,29.86 21.5186092,29.5303366 23.00595,28.871 C24.4932908,28.2116634 25.7659447,27.3070058 26.82395,26.157 C27.8819553,25.0069943 28.7022804,23.6500078 29.28495,22.086 C29.8676196,20.5219922 30.15895,18.8506756 30.15895,17.072 C30.15895,15.3546581 29.859953,13.7446742 29.26195,12.242 C28.663947,10.7393258 27.8282887,9.43600552 26.75495,8.332 C25.6816113,7.22799448 24.4089574,6.35400322 22.93695,5.71 C21.4649426,5.06599678 19.8549587,4.744 18.10695,4.744 C16.3896081,4.744 14.802624,5.06599678 13.34595,5.71 C11.8892761,6.35400322 10.6242887,7.22799448 9.55095001,8.332 C8.47761131,9.43600552 7.63428641,10.7316592 7.02095001,12.219 C6.40761361,13.7063408 6.10095001,15.2933249 6.10095001,16.98 C6.10095001,18.7586756 6.39228043,20.4299922 6.97495001,21.994 C7.55761959,23.5580078 8.37794472,24.9226608 9.43595001,26.088 C10.4939553,27.2533392 11.7589426,28.17333 13.23095,28.848 C14.7029574,29.52267 16.3282744,29.86 18.10695,29.86 Z"/>
  </g>
</svg>
