<svg width="100" height="100" viewBox="0 0 100 100" xmlns="http://www.w3.org/2000/svg"><title>icon_code</title><defs><linearGradient x1="20.419%" y1="10.734%" x2="75.714%" y2="89.102%" id="a"><stop stop-color="#EDEDED" offset="0%"/><stop stop-color="#C6D2DD" offset="100%"/></linearGradient><linearGradient x1="18.661%" y1="0%" x2="81.339%" y2="100%" id="b"><stop stop-color="#080431" offset="0%"/><stop stop-color="#090532" offset=".568%"/><stop stop-color="#4696DF" offset="100%"/></linearGradient></defs><g fill-rule="nonzero" fill="none"><path d="M50.018 99.857C22.472 99.857.144 77.528.144 49.984.144 22.438 22.472.11 50.018.11c27.544 0 49.874 22.328 49.874 49.873 0 27.544-22.33 49.874-49.874 49.874" fill="url(#a)"/><path d="M20.116 69.442L50.525 99.85c27.312-.273 49.368-22.493 49.368-49.867 0-.578-.015-1.155-.034-1.73L80.471 28.867 20.116 69.442" fill="url(#b)" opacity=".2"/><path d="M80.958 30.614a3.4 3.4 0 0 0-3.4-3.4H22.476a3.4 3.4 0 0 0-3.4 3.4v36.38s1.522.07 3.4.07h55.082a3.4 3.4 0 0 0 3.4-3.4v-33.05" fill="#182F35"/><path d="M80.958 30.614a3.4 3.4 0 0 0-3.4-3.4H22.476a3.4 3.4 0 0 0-3.4 3.4v36.38s1.522.07 3.4.07h55.082c1.88 0 3.4-.07 3.4-.07v-36.38" fill="#384042"/><path d="M19.075 65.704v1.29s1.523.07 3.4.07h55.083c1.88 0 3.4-.07 3.4-.07v-36.38a3.36 3.36 0 0 0-.488-1.747L19.076 65.703" fill="#273538"/><path fill="#5F7690" d="M22.476 63.664h55.082v-33.05H22.476z"/><path d="M29.645 37h18.71c.355 0 .645.29.645.645v.645c0 .355-.29.645-.645.645h-18.71A.647.647 0 0 1 29 38.29v-.645c0-.355.29-.645.645-.645z" fill="#E4E7E7"/><path d="M37.387 41.516h-7.742a.647.647 0 0 0-.645.645v.645c0 .355.29.646.645.646h7.742c.355 0 .645-.29.645-.646v-.645a.647.647 0 0 0-.645-.645zm-1.935 9.032h-5.807a.647.647 0 0 0-.645.646v.645c0 .355.29.645.645.645h5.807c.354 0 .645-.29.645-.645v-.645a.647.647 0 0 0-.645-.646zm17.419 0H49a.647.647 0 0 0-.645.646v.645c0 .355.29.645.645.645h3.871c.355 0 .645-.29.645-.645v-.645a.647.647 0 0 0-.645-.646z" fill="#E35E53"/><path d="M52.871 41.516H41.258a.647.647 0 0 0-.645.645v.645c0 .355.29.646.645.646h11.613c.355 0 .645-.29.645-.646v-.645a.647.647 0 0 0-.645-.645zm0 13.549H29.645a.647.647 0 0 0-.645.645v.645c0 .355.29.645.645.645h23.226c.355 0 .645-.29.645-.645v-.645a.647.647 0 0 0-.645-.645z" fill="#26A6D1"/><path d="M45.129 46.032H29.645a.647.647 0 0 0-.645.645v.646c0 .354.29.645.645.645H45.13c.355 0 .645-.29.645-.645v-.646a.647.647 0 0 0-.645-.645zm0 4.516h-5.806a.647.647 0 0 0-.646.646v.645c0 .355.29.645.646.645h5.806c.355 0 .645-.29.645-.645v-.645a.647.647 0 0 0-.645-.646z" fill="#49B8A4"/><path fill="#000" opacity=".1" d="M22.476 63.664h55.082v-33.05l-55.082 33.05"/><path fill="#AAB0B3" d="M61.934 78.973H38.101l3.317-11.365h17.2l3.316 11.365"/><path d="M19.075 66.994a3.4 3.4 0 0 0 3.4 3.4h55.083a3.4 3.4 0 0 0 3.4-3.4H19.075zM35.814 81.8h28.408v-3.65H35.814v3.65z" fill="#F2F5F5"/></g></svg>